<svg xmlns="http://www.w3.org/2000/svg" xmlns:xlink="http://www.w3.org/1999/xlink" width="500" zoomAndPan="magnify" viewBox="0 0 375 374.999991" height="500" preserveAspectRatio="xMidYMid meet" version="1.0"><path fill="#3298fe" d="M 245.257812 186.921875 C 245.257812 170.613281 238.902344 155.539062 227.375 144.003906 C 215.84375 132.46875 200.503906 126.378906 184.199219 126.378906 L 123.183594 126.378906 L 123.183594 248.613281 L 184.199219 248.613281 C 200.503906 248.613281 215.84375 241.945312 227.375 230.410156 C 238.910156 218.890625 245.257812 203.238281 245.257812 186.921875 Z M 184.199219 221.734375 L 149.785156 221.734375 L 149.785156 153 L 184.199219 153 C 203.167969 153 218.59375 168.398438 218.59375 187.371094 C 218.59375 206.339844 203.160156 221.734375 184.199219 221.734375 Z M 360.117188 113.953125 C 350.671875 91.625 337.15625 71.582031 319.945312 54.371094 C 302.730469 37.15625 282.6875 23.910156 260.363281 14.464844 C 237.25 4.6875 212.695312 0 187.394531 0 L 0.113281 0 L 0.113281 248.621094 L 61.644531 248.621094 L 61.644531 311.816406 L 123.175781 311.816406 L 123.175781 375.015625 L 187.394531 375.015625 C 212.695312 375.015625 237.242188 369.742188 260.363281 359.964844 C 282.6875 350.519531 302.730469 336.851562 319.945312 319.640625 C 337.15625 302.425781 350.671875 282.300781 360.117188 259.980469 C 369.894531 236.863281 374.855469 212.269531 374.855469 186.96875 C 374.855469 161.664062 369.894531 137.070312 360.117188 113.953125 Z M 88.257812 89.800781 L 185.796875 89.800781 C 239.609375 89.800781 283.386719 133.546875 283.386719 187.363281 C 283.386719 241.179688 239.609375 284.925781 185.796875 284.925781 L 88.257812 284.925781 Z M 187.394531 348.128906 L 149.785156 348.128906 L 149.785156 311.816406 L 185.796875 311.816406 C 202.566406 311.816406 218.835938 308.21875 234.167969 301.734375 C 248.96875 295.472656 262.257812 286.363281 273.664062 274.949219 C 285.070312 263.542969 294.027344 250.171875 300.289062 235.378906 C 306.773438 220.054688 310.058594 203.738281 310.058594 186.96875 C 310.058594 170.195312 306.773438 153.902344 300.289062 138.578125 C 294.027344 123.777344 285.070312 110.484375 273.664062 99.078125 C 262.257812 87.671875 248.96875 78.972656 234.167969 72.710938 C 218.84375 66.226562 202.566406 63.199219 185.796875 63.199219 L 61.644531 63.199219 L 61.644531 221.742188 L 26.726562 221.742188 L 26.726562 26.609375 L 187.402344 26.609375 C 276.058594 26.609375 348.191406 98.710938 348.191406 187.371094 C 348.191406 276.03125 276.058594 348.128906 187.394531 348.128906 Z M 187.394531 348.128906 " fill-opacity="1" fill-rule="nonzero"/></svg>